<svg width="949" height="651" xmlns="http://www.w3.org/2000/svg"><g><path d="M-8,-42L-41,42L61,-30Z" fill="#f7f9ff" stroke="#f7f9ff"/><path d="M-8,-42L61,-30L252,-67Z" fill="#edf3fa" stroke="#edf3fa"/><path d="M61,-30L-41,42L61,66Z" fill="#f2f8fe" stroke="#f2f8fe"/><path d="M61,-30L61,66L102,56Z" fill="#ecf5fb" stroke="#ecf5fb"/><path d="M61,-30L102,56L138,-29Z" fill="#edf3fa" stroke="#edf3fa"/><path d="M61,-30L138,-29L252,-67Z" fill="#e7f0f8" stroke="#e7f0f8"/><path d="M138,-29L102,56L168,35Z" fill="#e7f1f8" stroke="#e7f1f8"/><path d="M138,-29L168,35L183,-8Z" fill="#e6f0f7" stroke="#e6f0f7"/><path d="M138,-29L183,-8L252,-67Z" fill="#e3eef6" stroke="#e3eef6"/><path d="M183,-8L168,35L292,15Z" fill="#dfedf4" stroke="#dfedf4"/><path d="M183,-8L292,15L252,-67Z" fill="#ddebf3" stroke="#ddebf3"/><path d="M252,-67L292,15L349,-64Z" fill="#d4e6f1" stroke="#d4e6f1"/><path d="M252,-67L349,-64L808,-61Z" fill="#b6d7eb" stroke="#b6d7eb"/><path d="M349,-64L292,15L365,71Z" fill="#cde3f0" stroke="#cde3f0"/><path d="M349,-64L365,71L442,42Z" fill="#c3deee" stroke="#c3deee"/><path d="M349,-64L442,42L440,-45Z" fill="#c0dced" stroke="#c0dced"/><path d="M349,-64L440,-45L537,-47Z" fill="#bbdaec" stroke="#bbdaec"/><path d="M349,-64L537,-47L710,-54Z" fill="#accfe7" stroke="#accfe7"/><path d="M349,-64L710,-54L775,-59Z" fill="#a0c5e1" stroke="#a0c5e1"/><path d="M349,-64L775,-59L808,-61Z" fill="#9bc1df" stroke="#9bc1df"/><path d="M440,-45L442,42L537,-47Z" fill="#b6d7eb" stroke="#b6d7eb"/><path d="M537,-47L442,42L527,61Z" fill="#afd3e9" stroke="#afd3e9"/><path d="M537,-47L527,61L615,-22Z" fill="#a8cce5" stroke="#a8cce5"/><path d="M537,-47L615,-22L710,-54Z" fill="#9ec4e1" stroke="#9ec4e1"/><path d="M615,-22L527,61L622,42Z" fill="#a1c8e3" stroke="#a1c8e3"/><path d="M615,-22L622,42L652,14Z" fill="#9cc3e0" stroke="#9cc3e0"/><path d="M615,-22L652,14L710,-54Z" fill="#98bfde" stroke="#98bfde"/><path d="M710,-54L652,14L761,37Z" fill="#91b9db" stroke="#91b9db"/><path d="M710,-54L761,37L775,-59Z" fill="#8ab4d8" stroke="#8ab4d8"/><path d="M775,-59L761,37L808,-61Z" fill="#85afd5" stroke="#85afd5"/><path d="M808,-61L761,37L888,33Z" fill="#7faad3" stroke="#7faad3"/><path d="M808,-61L888,33L925,-55Z" fill="#80a3cf" stroke="#80a3cf"/><path d="M925,-55L888,33L989,-6Z" fill="#809ccb" stroke="#809ccb"/><path d="M925,-55L989,-6L1032,9Z" fill="#8096c7" stroke="#8096c7"/><path d="M989,-6L888,33L967,134Z" fill="#7b9aca" stroke="#7b9aca"/><path d="M989,-6L967,134L1032,9Z" fill="#7c94c6" stroke="#7c94c6"/><path d="M-41,42L-64,175L-8,126Z" fill="#f1fbff" stroke="#f1fbff"/><path d="M-41,42L-8,126L59,87Z" fill="#eff9ff" stroke="#eff9ff"/><path d="M-41,42L59,87L61,66Z" fill="#eef8fe" stroke="#eef8fe"/><path d="M61,66L59,87L102,56Z" fill="#e9f5fc" stroke="#e9f5fc"/><path d="M102,56L59,87L127,153Z" fill="#e4f4fa" stroke="#e4f4fa"/><path d="M102,56L127,153L180,148Z" fill="#def1f8" stroke="#def1f8"/><path d="M102,56L180,148L168,35Z" fill="#e0f0f8" stroke="#e0f0f8"/><path d="M168,35L180,148L255,119Z" fill="#d9edf5" stroke="#d9edf5"/><path d="M168,35L255,119L292,15Z" fill="#d9ebf3" stroke="#d9ebf3"/><path d="M292,15L255,119L365,71Z" fill="#cce5f1" stroke="#cce5f1"/><path d="M365,71L255,119L373,149Z" fill="#c4e3f0" stroke="#c4e3f0"/><path d="M365,71L373,149L446,154Z" fill="#b8deee" stroke="#b8deee"/><path d="M365,71L446,154L442,42Z" fill="#b7dced" stroke="#b7dced"/><path d="M442,42L446,154L527,61Z" fill="#aed7eb" stroke="#aed7eb"/><path d="M527,61L446,154L540,132Z" fill="#a6d3e9" stroke="#a6d3e9"/><path d="M527,61L540,132L594,108Z" fill="#a0cde5" stroke="#a0cde5"/><path d="M527,61L594,108L622,42Z" fill="#9ec9e3" stroke="#9ec9e3"/><path d="M622,42L594,108L678,95Z" fill="#95c3e0" stroke="#95c3e0"/><path d="M622,42L678,95L652,14Z" fill="#95c0de" stroke="#95c0de"/><path d="M652,14L678,95L761,37Z" fill="#8ebadb" stroke="#8ebadb"/><path d="M761,37L678,95L767,131Z" fill="#85b5d9" stroke="#85b5d9"/><path d="M761,37L767,131L875,71Z" fill="#7badd4" stroke="#7badd4"/><path d="M761,37L875,71L888,33Z" fill="#7ba8d1" stroke="#7ba8d1"/><path d="M875,71L767,131L870,127Z" fill="#76a8d2" stroke="#76a8d2"/><path d="M875,71L870,127L900,128Z" fill="#76a2ce" stroke="#76a2ce"/><path d="M875,71L900,128L967,134Z" fill="#769ecc" stroke="#769ecc"/><path d="M875,71L967,134L888,33Z" fill="#789fcc" stroke="#789fcc"/><path d="M1032,9L967,134L995,215Z" fill="#7593c6" stroke="#7593c6"/><path d="M1032,9L995,215L1001,379Z" fill="#658cc6" stroke="#658cc6"/><path d="M1032,9L1001,379L1031,596Z" fill="#3f78c4" stroke="#3f78c4"/><path d="M1032,9L1031,596L1032,676Z" fill="#2461b8" stroke="#2461b8"/><path d="M-8,126L-64,175L61,216Z" fill="#e6f8ff" stroke="#e6f8ff"/><path d="M-8,126L61,216L59,87Z" fill="#e6f7fd" stroke="#e6f7fd"/><path d="M59,87L61,216L110,192Z" fill="#e0f4fb" stroke="#e0f4fb"/><path d="M59,87L110,192L127,153Z" fill="#dff3fa" stroke="#dff3fa"/><path d="M127,153L110,192L170,188Z" fill="#d5eff8" stroke="#d5eff8"/><path d="M127,153L170,188L180,148Z" fill="#d7f0f7" stroke="#d7f0f7"/><path d="M180,148L170,188L248,167Z" fill="#d2edf5" stroke="#d2edf5"/><path d="M180,148L248,167L255,119Z" fill="#d2ecf4" stroke="#d2ecf4"/><path d="M255,119L248,167L373,149Z" fill="#c7e7f1" stroke="#c7e7f1"/><path d="M373,149L248,167L293,246Z" fill="#bce2f1" stroke="#bce2f1"/><path d="M373,149L293,246L387,203Z" fill="#b1dcef" stroke="#b1dcef"/><path d="M373,149L387,203L429,190Z" fill="#aedbee" stroke="#aedbee"/><path d="M373,149L429,190L446,154Z" fill="#b0dced" stroke="#b0dced"/><path d="M446,154L429,190L518,185Z" fill="#a4d6eb" stroke="#a4d6eb"/><path d="M446,154L518,185L540,132Z" fill="#a3d3e9" stroke="#a3d3e9"/><path d="M540,132L518,185L616,178Z" fill="#99cce5" stroke="#99cce5"/><path d="M540,132L616,178L594,108Z" fill="#97c9e3" stroke="#97c9e3"/><path d="M594,108L616,178L678,95Z" fill="#92c3e0" stroke="#92c3e0"/><path d="M678,95L616,178L678,212Z" fill="#8abfde" stroke="#8abfde"/><path d="M678,95L678,212L767,131Z" fill="#83b9db" stroke="#83b9db"/><path d="M767,131L678,212L768,232Z" fill="#75b0d8" stroke="#75b0d8"/><path d="M767,131L768,232L824,196Z" fill="#6fabd5" stroke="#6fabd5"/><path d="M767,131L824,196L870,127Z" fill="#72aad3" stroke="#72aad3"/><path d="M870,127L824,196L928,208Z" fill="#6ca1cf" stroke="#6ca1cf"/><path d="M870,127L928,208L900,128Z" fill="#72a0cd" stroke="#72a0cd"/><path d="M900,128L928,208L967,134Z" fill="#719ccb" stroke="#719ccb"/><path d="M967,134L928,208L995,215Z" fill="#6a94c9" stroke="#6a94c9"/><path d="M-64,175L-73,631L-63,413Z" fill="#a8d3f6" stroke="#a8d3f6"/><path d="M-64,175L-63,413L-46,286Z" fill="#c8eaff" stroke="#c8eaff"/><path d="M-64,175L-46,286L61,216Z" fill="#d7f1ff" stroke="#d7f1ff"/><path d="M61,216L-46,286L16,309Z" fill="#c7e9ff" stroke="#c7e9ff"/><path d="M61,216L16,309L93,334Z" fill="#bde4fc" stroke="#bde4fc"/><path d="M61,216L93,334L130,253Z" fill="#bfe4fa" stroke="#bfe4fa"/><path d="M61,216L130,253L110,192Z" fill="#ccebfa" stroke="#ccebfa"/><path d="M110,192L130,253L170,188Z" fill="#cbeaf8" stroke="#cbeaf8"/><path d="M170,188L130,253L176,305Z" fill="#bee3f7" stroke="#bee3f7"/><path d="M170,188L176,305L293,246Z" fill="#b9e0f4" stroke="#b9e0f4"/><path d="M170,188L293,246L248,167Z" fill="#c4e6f3" stroke="#c4e6f3"/><path d="M387,203L293,246L375,310Z" fill="#a0d4ef" stroke="#a0d4ef"/><path d="M387,203L375,310L474,315Z" fill="#8fcced" stroke="#8fcced"/><path d="M387,203L474,315L429,190Z" fill="#98d0ec" stroke="#98d0ec"/><path d="M429,190L474,315L535,277Z" fill="#88c8ea" stroke="#88c8ea"/><path d="M429,190L535,277L518,185Z" fill="#93cce9" stroke="#93cce9"/><path d="M518,185L535,277L587,258Z" fill="#83c2e6" stroke="#83c2e6"/><path d="M518,185L587,258L616,178Z" fill="#89c4e4" stroke="#89c4e4"/><path d="M616,178L587,258L678,212Z" fill="#7ebbe0" stroke="#7ebbe0"/><path d="M678,212L587,258L650,277Z" fill="#73b5df" stroke="#73b5df"/><path d="M678,212L650,277L769,262Z" fill="#69addb" stroke="#69addb"/><path d="M678,212L769,262L768,232Z" fill="#67aad8" stroke="#67aad8"/><path d="M768,232L769,262L848,250Z" fill="#5ba1d4" stroke="#5ba1d4"/><path d="M768,232L848,250L824,196Z" fill="#5ea2d3" stroke="#5ea2d3"/><path d="M824,196L848,250L928,208Z" fill="#609ccf" stroke="#609ccf"/><path d="M928,208L848,250L913,303Z" fill="#5593cd" stroke="#5593cd"/><path d="M928,208L913,303L989,303Z" fill="#508aca" stroke="#508aca"/><path d="M928,208L989,303L995,215Z" fill="#598bc8" stroke="#598bc8"/><path d="M995,215L989,303L1001,379Z" fill="#4880c7" stroke="#4880c7"/><path d="M-46,286L-63,413L-8,344Z" fill="#b5dffd" stroke="#b5dffd"/><path d="M-46,286L-8,344L16,309Z" fill="#bde4ff" stroke="#bde4ff"/><path d="M16,309L-8,344L73,358Z" fill="#b1ddfc" stroke="#b1ddfc"/><path d="M16,309L73,358L93,334Z" fill="#afdcfb" stroke="#afdcfb"/><path d="M130,253L93,334L176,305Z" fill="#b2ddf9" stroke="#b2ddf9"/><path d="M176,305L93,334L178,387Z" fill="#a3d5f6" stroke="#a3d5f6"/><path d="M176,305L178,387L247,378Z" fill="#9acef2" stroke="#9acef2"/><path d="M176,305L247,378L293,246Z" fill="#a3d6f3" stroke="#a3d6f3"/><path d="M293,246L247,378L375,310Z" fill="#97cff1" stroke="#97cff1"/><path d="M375,310L247,378L391,354Z" fill="#87c6ed" stroke="#87c6ed"/><path d="M375,310L391,354L474,315Z" fill="#80c4ed" stroke="#80c4ed"/><path d="M474,315L391,354L422,392Z" fill="#76bde9" stroke="#76bde9"/><path d="M474,315L422,392L494,356Z" fill="#6fb9e8" stroke="#6fb9e8"/><path d="M474,315L494,356L535,277Z" fill="#74bde9" stroke="#74bde9"/><path d="M535,277L494,356L577,340Z" fill="#6cb7e7" stroke="#6cb7e7"/><path d="M535,277L577,340L587,258Z" fill="#71b8e4" stroke="#71b8e4"/><path d="M587,258L577,340L650,277Z" fill="#6bb3e2" stroke="#6bb3e2"/><path d="M650,277L577,340L679,386Z" fill="#5aa8df" stroke="#5aa8df"/><path d="M650,277L679,386L769,262Z" fill="#57a4db" stroke="#57a4db"/><path d="M769,262L679,386L761,395Z" fill="#4698d6" stroke="#4698d6"/><path d="M769,262L761,395L816,337Z" fill="#4496d5" stroke="#4496d5"/><path d="M769,262L816,337L848,250Z" fill="#4e9ad3" stroke="#4e9ad3"/><path d="M848,250L816,337L913,303Z" fill="#4892d0" stroke="#4892d0"/><path d="M913,303L816,337L873,421Z" fill="#3886cc" stroke="#3886cc"/><path d="M913,303L873,421L946,392Z" fill="#337cc7" stroke="#337cc7"/><path d="M913,303L946,392L989,303Z" fill="#3e80c9" stroke="#3e80c9"/><path d="M989,303L946,392L1001,379Z" fill="#3777c4" stroke="#3777c4"/><path d="M-8,344L-63,413L13,464Z" fill="#a3d0f5" stroke="#a3d0f5"/><path d="M-8,344L13,464L73,358Z" fill="#a4d2f6" stroke="#a4d2f6"/><path d="M73,358L13,464L128,465Z" fill="#94c6ef" stroke="#94c6ef"/><path d="M73,358L128,465L178,387Z" fill="#95c9ef" stroke="#95c9ef"/><path d="M73,358L178,387L93,334Z" fill="#a2d3f5" stroke="#a2d3f5"/><path d="M178,387L128,465L167,472Z" fill="#87bee9" stroke="#87bee9"/><path d="M178,387L167,472L263,451Z" fill="#84bde7" stroke="#84bde7"/><path d="M178,387L263,451L247,378Z" fill="#8ac2ea" stroke="#8ac2ea"/><path d="M247,378L263,451L332,468Z" fill="#7ab8e5" stroke="#7ab8e5"/><path d="M247,378L332,468L391,354Z" fill="#7bbbe7" stroke="#7bbbe7"/><path d="M391,354L332,468L422,392Z" fill="#70b5e5" stroke="#70b5e5"/><path d="M422,392L332,468L451,445Z" fill="#64ade0" stroke="#64ade0"/><path d="M422,392L451,445L494,356Z" fill="#65b0e3" stroke="#65b0e3"/><path d="M494,356L451,445L525,418Z" fill="#5dabe0" stroke="#5dabe0"/><path d="M494,356L525,418L577,340Z" fill="#60ade1" stroke="#60ade1"/><path d="M577,340L525,418L623,430Z" fill="#53a2db" stroke="#53a2db"/><path d="M577,340L623,430L679,386Z" fill="#4e9ed9" stroke="#4e9ed9"/><path d="M679,386L623,430L676,427Z" fill="#4093d3" stroke="#4093d3"/><path d="M679,386L676,427L729,413Z" fill="#3c90d1" stroke="#3c90d1"/><path d="M679,386L729,413L761,395Z" fill="#3b8fd1" stroke="#3b8fd1"/><path d="M761,395L729,413L831,510Z" fill="#287fc8" stroke="#287fc8"/><path d="M761,395L831,510L873,421Z" fill="#2078c5" stroke="#2078c5"/><path d="M761,395L873,421L816,337Z" fill="#3086cc" stroke="#3086cc"/><path d="M946,392L873,421L923,465Z" fill="#2570c0" stroke="#2570c0"/><path d="M946,392L923,465L966,453Z" fill="#226abd" stroke="#226abd"/><path d="M946,392L966,453L1001,379Z" fill="#296dbe" stroke="#296dbe"/><path d="M1001,379L966,453L976,500Z" fill="#2064ba" stroke="#2064ba"/><path d="M1001,379L976,500L1031,596Z" fill="#1356b2" stroke="#1356b2"/><path d="M-63,413L-73,631L-12,526Z" fill="#87b8e8" stroke="#87b8e8"/><path d="M-63,413L-12,526L13,464Z" fill="#93c3ee" stroke="#93c3ee"/><path d="M13,464L-12,526L19,539Z" fill="#85b8e9" stroke="#85b8e9"/><path d="M13,464L19,539L132,509Z" fill="#81b7e7" stroke="#81b7e7"/><path d="M13,464L132,509L128,465Z" fill="#84bae8" stroke="#84bae8"/><path d="M128,465L132,509L167,472Z" fill="#7eb6e5" stroke="#7eb6e5"/><path d="M167,472L132,509L199,527Z" fill="#76b0e2" stroke="#76b0e2"/><path d="M167,472L199,527L263,451Z" fill="#77b2e2" stroke="#77b2e2"/><path d="M263,451L199,527L282,553Z" fill="#6aa9dd" stroke="#6aa9dd"/><path d="M263,451L282,553L339,504Z" fill="#64a7dc" stroke="#64a7dc"/><path d="M263,451L339,504L332,468Z" fill="#69acdf" stroke="#69acdf"/><path d="M332,468L339,504L448,493Z" fill="#5ba4db" stroke="#5ba4db"/><path d="M332,468L448,493L451,445Z" fill="#5aa5dc" stroke="#5aa5dc"/><path d="M451,445L448,493L525,418Z" fill="#53a3dc" stroke="#53a3dc"/><path d="M525,418L448,493L535,547Z" fill="#4598d6" stroke="#4598d6"/><path d="M525,418L535,547L614,533Z" fill="#398ed0" stroke="#398ed0"/><path d="M525,418L614,533L623,430Z" fill="#3f92d3" stroke="#3f92d3"/><path d="M623,430L614,533L680,507Z" fill="#2f85cc" stroke="#2f85cc"/><path d="M623,430L680,507L676,427Z" fill="#358ace" stroke="#358ace"/><path d="M676,427L680,507L729,413Z" fill="#3187cc" stroke="#3187cc"/><path d="M729,413L680,507L745,551Z" fill="#237bc6" stroke="#237bc6"/><path d="M729,413L745,551L831,510Z" fill="#1a74c2" stroke="#1a74c2"/><path d="M873,421L831,510L923,465Z" fill="#1a6cbe" stroke="#1a6cbe"/><path d="M923,465L831,510L898,589Z" fill="#0b5fb7" stroke="#0b5fb7"/><path d="M923,465L898,589L951,485Z" fill="#0d5bb5" stroke="#0d5bb5"/><path d="M923,465L951,485L966,453Z" fill="#1963b9" stroke="#1963b9"/><path d="M966,453L951,485L976,500Z" fill="#165eb6" stroke="#165eb6"/><path d="M-12,526L-73,631L24,602Z" fill="#7aa9e0" stroke="#7aa9e0"/><path d="M-12,526L24,602L19,539Z" fill="#78aee3" stroke="#78aee3"/><path d="M19,539L24,602L132,509Z" fill="#75ace1" stroke="#75ace1"/><path d="M132,509L24,602L135,635Z" fill="#6ea3dc" stroke="#6ea3dc"/><path d="M132,509L135,635L202,567Z" fill="#67a2da" stroke="#67a2da"/><path d="M132,509L202,567L199,527Z" fill="#6ca9dd" stroke="#6ca9dd"/><path d="M199,527L202,567L282,553Z" fill="#63a2d9" stroke="#63a2d9"/><path d="M282,553L202,567L258,589Z" fill="#5d9cd5" stroke="#5d9cd5"/><path d="M282,553L258,589L360,565Z" fill="#5498d4" stroke="#5498d4"/><path d="M282,553L360,565L339,504Z" fill="#559cd6" stroke="#559cd6"/><path d="M339,504L360,565L448,493Z" fill="#509cd7" stroke="#509cd7"/><path d="M448,493L360,565L444,631Z" fill="#408fd0" stroke="#408fd0"/><path d="M448,493L444,631L535,547Z" fill="#378ccf" stroke="#378ccf"/><path d="M535,547L444,631L554,588Z" fill="#3080c9" stroke="#3080c9"/><path d="M535,547L554,588L614,533Z" fill="#2880c9" stroke="#2880c9"/><path d="M614,533L554,588L612,587Z" fill="#2379c5" stroke="#2379c5"/><path d="M614,533L612,587L670,567Z" fill="#1d76c3" stroke="#1d76c3"/><path d="M614,533L670,567L680,507Z" fill="#2079c5" stroke="#2079c5"/><path d="M680,507L670,567L745,551Z" fill="#1872c1" stroke="#1872c1"/><path d="M745,551L670,567L786,607Z" fill="#0d66bb" stroke="#0d66bb"/><path d="M745,551L786,607L831,510Z" fill="#0664b9" stroke="#0664b9"/><path d="M831,510L786,607L855,630Z" fill="#0059b3" stroke="#0059b3"/><path d="M831,510L855,630L898,589Z" fill="#0056b2" stroke="#0056b2"/><path d="M951,485L898,589L976,500Z" fill="#0a57b2" stroke="#0a57b2"/><path d="M976,500L898,589L1031,596Z" fill="#004bac" stroke="#004bac"/><path d="M-73,631L-31,774L-59,669Z" fill="#7d93d3" stroke="#7d93d3"/><path d="M-73,631L-59,669L24,602Z" fill="#7c9fda" stroke="#7c9fda"/><path d="M24,602L-59,669L71,686Z" fill="#7698d8" stroke="#7698d8"/><path d="M24,602L71,686L135,635Z" fill="#7097d5" stroke="#7097d5"/><path d="M135,635L71,686L113,694Z" fill="#6d8ed0" stroke="#6d8ed0"/><path d="M135,635L113,694L206,714Z" fill="#688acd" stroke="#688acd"/><path d="M135,635L206,714L258,589Z" fill="#638ecf" stroke="#638ecf"/><path d="M135,635L258,589L202,567Z" fill="#639ad5" stroke="#639ad5"/><path d="M258,589L206,714L262,695Z" fill="#5e87ca" stroke="#5e87ca"/><path d="M258,589L262,695L360,701Z" fill="#5584c9" stroke="#5584c9"/><path d="M258,589L360,701L360,565Z" fill="#4f8bcd" stroke="#4f8bcd"/><path d="M360,565L360,701L429,652Z" fill="#4681c9" stroke="#4681c9"/><path d="M360,565L429,652L444,631Z" fill="#4184ca" stroke="#4184ca"/><path d="M444,631L429,652L533,665Z" fill="#3778c4" stroke="#3778c4"/><path d="M444,631L533,665L554,588Z" fill="#3077c4" stroke="#3077c4"/><path d="M554,588L533,665L588,652Z" fill="#296fc0" stroke="#296fc0"/><path d="M554,588L588,652L612,587Z" fill="#2572c1" stroke="#2572c1"/><path d="M612,587L588,652L691,692Z" fill="#1d64ba" stroke="#1d64ba"/><path d="M612,587L691,692L670,567Z" fill="#1967bc" stroke="#1967bc"/><path d="M670,567L691,692L786,607Z" fill="#105eb6" stroke="#105eb6"/><path d="M786,607L691,692L793,691Z" fill="#0a50af" stroke="#0a50af"/><path d="M786,607L793,691L858,645Z" fill="#014cad" stroke="#014cad"/><path d="M786,607L858,645L855,630Z" fill="#004eae" stroke="#004eae"/><path d="M855,630L858,645L903,656Z" fill="#0045a9" stroke="#0045a9"/><path d="M855,630L903,656L898,589Z" fill="#0048aa" stroke="#0048aa"/><path d="M898,589L903,656L1031,596Z" fill="#0043a8" stroke="#0043a8"/><path d="M1031,596L903,656L1032,676Z" fill="#0037a1" stroke="#0037a1"/><path d="M-59,669L-31,774L36,753Z" fill="#7a88cf" stroke="#7a88cf"/><path d="M-59,669L36,753L71,686Z" fill="#768dd1" stroke="#768dd1"/><path d="M71,686L36,753L113,694Z" fill="#7087ce" stroke="#7087ce"/><path d="M113,694L36,753L150,792Z" fill="#6d7ec8" stroke="#6d7ec8"/><path d="M113,694L150,792L194,748Z" fill="#687cc6" stroke="#687cc6"/><path d="M113,694L194,748L206,714Z" fill="#6680c8" stroke="#6680c8"/><path d="M206,714L194,748L277,728Z" fill="#607ac3" stroke="#607ac3"/><path d="M206,714L277,728L262,695Z" fill="#5d7dc4" stroke="#5d7dc4"/><path d="M262,695L277,728L360,701Z" fill="#5479c3" stroke="#5479c3"/><path d="M360,701L277,728L387,783Z" fill="#4d6fbe" stroke="#4d6fbe"/><path d="M360,701L387,783L416,727Z" fill="#456bbc" stroke="#456bbc"/><path d="M360,701L416,727L429,652Z" fill="#4274c1" stroke="#4274c1"/><path d="M429,652L416,727L533,665Z" fill="#3872c1" stroke="#3872c1"/><path d="M533,665L416,727L536,755Z" fill="#3366bb" stroke="#3366bb"/><path d="M533,665L536,755L567,762Z" fill="#2b5db6" stroke="#2b5db6"/><path d="M533,665L567,762L588,652Z" fill="#2862b9" stroke="#2862b9"/><path d="M588,652L567,762L691,692Z" fill="#2059b4" stroke="#2059b4"/><path d="M691,692L567,762L702,777Z" fill="#1a4bac" stroke="#1a4bac"/><path d="M691,692L702,777L759,779Z" fill="#1042a7" stroke="#1042a7"/><path d="M691,692L759,779L793,691Z" fill="#0b44a8" stroke="#0b44a8"/><path d="M793,691L759,779L865,780Z" fill="#0236a1" stroke="#0236a1"/><path d="M793,691L865,780L858,645Z" fill="#003ca4" stroke="#003ca4"/><path d="M858,645L865,780L903,656Z" fill="#003aa3" stroke="#003aa3"/><path d="M903,656L865,780L953,756Z" fill="#002e9c" stroke="#002e9c"/><path d="M903,656L953,756L1032,676Z" fill="#002e9c" stroke="#002e9c"/><path d="M1032,676L953,756L987,774Z" fill="#002296" stroke="#002296"/><path d="M-31,774L150,792L36,753Z" fill="#727bc7" stroke="#727bc7"/><path d="M150,792L865,780L759,779Z" fill="#244aac" stroke="#244aac"/><path d="M150,792L759,779L387,783Z" fill="#3d5db5" stroke="#3d5db5"/><path d="M150,792L387,783L277,728Z" fill="#596ebd" stroke="#596ebd"/><path d="M150,792L277,728L194,748Z" fill="#6276c1" stroke="#6276c1"/><path d="M387,783L759,779L702,777Z" fill="#2048aa" stroke="#2048aa"/><path d="M387,783L702,777L567,762Z" fill="#2a52b0" stroke="#2a52b0"/><path d="M387,783L567,762L536,755Z" fill="#325ab4" stroke="#325ab4"/><path d="M387,783L536,755L416,727Z" fill="#3b62b8" stroke="#3b62b8"/><path d="M865,780L987,774L953,756Z" fill="#002195" stroke="#002195"/></g><filter id="noise"><feTurbulence type="fractalNoise" in="fillPaint" fill="#F00" baseFrequency="0.7" numOctaves="3" stitchTiles="stitch"/><feComponentTransfer><feFuncR type="linear" slope="2" intercept="-.5"/><feFuncG type="linear" slope="2" intercept="-.5"/><feFuncB type="linear" slope="2" intercept="-.5"/></feComponentTransfer><feColorMatrix type="matrix" values="0.3333 0.3333 0.3333 0 0 
 0.3333 0.3333 0.3333 0 0 
 0.3333 0.3333 0.3333 0 0 
 0 0 0 1 0"/></filter><rect opacity="0.20000000000000007" width="100%" height="100%" filter="url(#noise)"/></svg>